# xmcd CD database file
#
# Track frame offsets:
#	150
#	10113
#	24189
#	33845
#	47180
#	57183
#	70045
#	81630
#	91916
#	100960
#	110812
#	122183
#	132896
#	145176
#	157047
#	170009
#	179027
#	189822
#	200732
#	209227
#	221657
#	231551
#	242097
#	251103
#	261001
#	272983
#	281646
#	290558
#
# Disc length: 4016 seconds
#
# Revision: 4
# Processed by: cddbd v1.5.2PL0 Copyright (c) Steve Scherf et al.
# Submitted via: FreeDB 13.2
#
DISCID=bb0fae1c
DTITLE=Various Artist - The Sun Legend - Country Collection Vol. 1
DYEAR=2000
DGENRE=Country
TTITLE0=Johnny Cash - Hey Porter
TTITLE1=Jerry Lee Lewis - Cold Cold Heart
TTITLE2=Warren Smith - (Tell Me) Who
TTITLE3=Carl Perkins - Turn Around
TTITLE4=Slim Rhodes - Uncertain Love
TTITLE5=Gene Steele - Daisy Bread Boogie
TTITLE6=Ernie Chaffin - Feelin' Low
TTITLE7=The Miller Sisters - Chains of Love
TTITLE8=Doug Poindexter - My Kind of Carryin' On
TTITLE9=Eddie Bond - Show Me
TTITLE10=Malcolm Yelvington - Blues in the Bottom of My Shoes (Way Down Blues)
TTITLE11=Cast King - When You Stop Loving Me
TTITLE12=Mack Self - Easy To Love
TTITLE13=Johnny Cash - Home of the Blues
TTITLE14=Carl Perkins - Let the Jukebox Keep On Playing
TTITLE15=Warren Smith - Tonight Will Be the Last Night
TTITLE16=Jerry Lee Lewis - Will the Circle Be Unbroken
TTITLE17=Eddie Bond - Standing in Your Window
TTITLE18=Gene Simmons - Down on the Border
TTITLE19=Maggie Sue Wimberly - How Long
TTITLE20=Jimmy Wages - Heartbreakin' Love
TTITLE21=Carl Mann - I'm Bluer Than Anyone Can Be
TTITLE22=Dane Stinit - Muddy Ole River
TTITLE23=Thomas Wayne - Tragedy
TTITLE24=Johnny Cash - You're the Nearest Thing to Heaven
TTITLE25=Eddie Bond - This Old Heart of Mine
TTITLE26=Jack Clement - That Black Haired Man
TTITLE27=Charlie Rich - Who Will the Next Fool Be
EXTD=
EXTT0=
EXTT1=
EXTT2=
EXTT3=
EXTT4=
EXTT5=
EXTT6=
EXTT7=
EXTT8=
EXTT9=
EXTT10=
EXTT11=
EXTT12=
EXTT13=
EXTT14=
EXTT15=
EXTT16=
EXTT17=
EXTT18=
EXTT19=
EXTT20=
EXTT21=
EXTT22=
EXTT23=
EXTT24=
EXTT25=
EXTT26=
EXTT27=
PLAYORDER=
